<mxfile host="Electron" modified="2024-04-29T15:18:28.714Z" agent="Mozilla/5.0 (X11; Linux x86_64) AppleWebKit/537.36 (KHTML, like Gecko) draw.io/24.1.0 Chrome/120.0.6099.109 Electron/28.1.0 Safari/537.36" etag="Zv6aekRiYr5AJ_rWfHFj" version="24.1.0" type="device">
  <diagram id="muZ42oOCNlWf3pv_I_aN" name="Page-1">
    <mxGraphModel dx="1137" dy="703" grid="1" gridSize="10" guides="1" tooltips="1" connect="1" arrows="1" fold="1" page="1" pageScale="1" pageWidth="1600" pageHeight="900" math="0" shadow="0">
      <root>
        <mxCell id="0" />
        <mxCell id="1" parent="0" />
        <mxCell id="A4czcNd73MDWgNcc4S-J-50" value="" style="points=[[0,0],[0.25,0],[0.5,0],[0.75,0],[1,0],[1,0.25],[1,0.5],[1,0.75],[1,1],[0.75,1],[0.5,1],[0.25,1],[0,1],[0,0.75],[0,0.5],[0,0.25]];outlineConnect=0;gradientColor=none;html=1;whiteSpace=wrap;fontSize=18;fontStyle=0;shape=mxgraph.aws4.group;grIcon=mxgraph.aws4.group_aws_cloud;strokeColor=#232F3E;fillColor=none;verticalAlign=top;align=left;spacingLeft=30;fontColor=#232F3E;dashed=0;strokeWidth=3;" parent="1" vertex="1">
          <mxGeometry x="350" y="20" width="740" height="600" as="geometry" />
        </mxCell>
        <mxCell id="A4czcNd73MDWgNcc4S-J-6" value="&lt;font style=&quot;font-size: 17px&quot;&gt;Amazon S3&lt;/font&gt;" style="outlineConnect=0;fontColor=#232F3E;gradientColor=#60A337;gradientDirection=north;fillColor=#277116;strokeColor=#ffffff;dashed=0;verticalLabelPosition=bottom;verticalAlign=top;align=center;html=1;fontSize=12;fontStyle=0;aspect=fixed;shape=mxgraph.aws4.resourceIcon;resIcon=mxgraph.aws4.s3;" parent="1" vertex="1">
          <mxGeometry x="430" y="160" width="78" height="78" as="geometry" />
        </mxCell>
        <mxCell id="KF91Y4wxBmUiKKHnP0IP-8" style="rounded=0;orthogonalLoop=1;jettySize=auto;html=1;sourcePerimeterSpacing=5;targetPerimeterSpacing=5;strokeWidth=3;startArrow=classic;startFill=1;endArrow=none;endFill=0;" parent="1" source="A4czcNd73MDWgNcc4S-J-9" target="A4czcNd73MDWgNcc4S-J-6" edge="1">
          <mxGeometry relative="1" as="geometry" />
        </mxCell>
        <mxCell id="KF91Y4wxBmUiKKHnP0IP-10" value="&lt;font style=&quot;font-size: 17px&quot;&gt;put_object&lt;/font&gt;" style="edgeLabel;html=1;align=center;verticalAlign=middle;resizable=0;points=[];" parent="KF91Y4wxBmUiKKHnP0IP-8" vertex="1" connectable="0">
          <mxGeometry x="-0.182" relative="1" as="geometry">
            <mxPoint x="-12" y="-46" as="offset" />
          </mxGeometry>
        </mxCell>
        <mxCell id="KF91Y4wxBmUiKKHnP0IP-11" style="edgeStyle=none;rounded=0;orthogonalLoop=1;jettySize=auto;html=1;sourcePerimeterSpacing=5;targetPerimeterSpacing=5;strokeWidth=3;" parent="1" source="f-8_I14ezXY6ITc8xvoN-4" target="A4czcNd73MDWgNcc4S-J-6" edge="1">
          <mxGeometry relative="1" as="geometry">
            <mxPoint x="1270" y="250" as="sourcePoint" />
          </mxGeometry>
        </mxCell>
        <mxCell id="KF91Y4wxBmUiKKHnP0IP-14" value="&lt;font style=&quot;font-size: 17px&quot;&gt;generate_presigned_url&lt;/font&gt;" style="edgeLabel;html=1;align=center;verticalAlign=middle;resizable=0;points=[];" parent="KF91Y4wxBmUiKKHnP0IP-11" vertex="1" connectable="0">
          <mxGeometry x="-0.2206" y="1" relative="1" as="geometry">
            <mxPoint x="-119.68" y="3.479999999999997" as="offset" />
          </mxGeometry>
        </mxCell>
        <mxCell id="KF91Y4wxBmUiKKHnP0IP-16" value="&lt;font style=&quot;font-size: 17px&quot;&gt;detect_label&lt;/font&gt;" style="edgeStyle=none;rounded=0;orthogonalLoop=1;jettySize=auto;html=1;sourcePerimeterSpacing=5;targetPerimeterSpacing=5;strokeWidth=3;" parent="1" source="A4czcNd73MDWgNcc4S-J-9" target="KF91Y4wxBmUiKKHnP0IP-15" edge="1">
          <mxGeometry x="-0.6502" y="45" relative="1" as="geometry">
            <mxPoint as="offset" />
          </mxGeometry>
        </mxCell>
        <mxCell id="A4czcNd73MDWgNcc4S-J-9" value="&lt;font style=&quot;font-size: 17px&quot;&gt;DetectLabel&lt;/font&gt;" style="outlineConnect=0;fontColor=#232F3E;gradientColor=none;fillColor=#D05C17;strokeColor=none;dashed=0;verticalLabelPosition=bottom;verticalAlign=top;align=center;html=1;fontSize=12;fontStyle=0;aspect=fixed;pointerEvents=1;shape=mxgraph.aws4.lambda_function;" parent="1" vertex="1">
          <mxGeometry x="600" y="118" width="78" height="78" as="geometry" />
        </mxCell>
        <mxCell id="A4czcNd73MDWgNcc4S-J-11" value="&lt;font style=&quot;font-size: 17px&quot;&gt;Amazon &lt;br&gt;DynamoDB Table&lt;/font&gt;" style="outlineConnect=0;fontColor=#232F3E;gradientColor=#4D72F3;gradientDirection=north;fillColor=#3334B9;strokeColor=#ffffff;dashed=0;verticalLabelPosition=bottom;verticalAlign=top;align=center;html=1;fontSize=12;fontStyle=0;aspect=fixed;shape=mxgraph.aws4.resourceIcon;resIcon=mxgraph.aws4.dynamodb;" parent="1" vertex="1">
          <mxGeometry x="940" y="118" width="78" height="78" as="geometry" />
        </mxCell>
        <mxCell id="A4czcNd73MDWgNcc4S-J-18" style="edgeStyle=orthogonalEdgeStyle;rounded=0;orthogonalLoop=1;jettySize=auto;html=1;sourcePerimeterSpacing=5;strokeWidth=3;targetPerimeterSpacing=5;" parent="1" source="A4czcNd73MDWgNcc4S-J-14" target="f-8_I14ezXY6ITc8xvoN-2" edge="1">
          <mxGeometry relative="1" as="geometry">
            <mxPoint x="585" y="388" as="targetPoint" />
          </mxGeometry>
        </mxCell>
        <mxCell id="f-8_I14ezXY6ITc8xvoN-1" style="edgeStyle=orthogonalEdgeStyle;rounded=0;orthogonalLoop=1;jettySize=auto;html=1;strokeWidth=3;" edge="1" parent="1" source="A4czcNd73MDWgNcc4S-J-14" target="A4czcNd73MDWgNcc4S-J-6">
          <mxGeometry relative="1" as="geometry">
            <Array as="points">
              <mxPoint x="259" y="200" />
            </Array>
          </mxGeometry>
        </mxCell>
        <mxCell id="A4czcNd73MDWgNcc4S-J-14" value="&lt;font style=&quot;font-size: 17px&quot;&gt;Web Browser&lt;/font&gt;" style="outlineConnect=0;fontColor=#232F3E;gradientColor=none;fillColor=#232F3E;strokeColor=none;dashed=0;verticalLabelPosition=middle;verticalAlign=middle;align=right;html=1;fontSize=12;fontStyle=0;aspect=fixed;pointerEvents=1;shape=mxgraph.aws4.client;labelPosition=left;spacingRight=8;" parent="1" vertex="1">
          <mxGeometry x="220" y="343" width="78" height="76" as="geometry" />
        </mxCell>
        <mxCell id="A4czcNd73MDWgNcc4S-J-36" value="&lt;font style=&quot;font-size: 13px&quot;&gt;React&lt;br&gt;&amp;nbsp;Application&lt;/font&gt;" style="outlineConnect=0;dashed=0;verticalLabelPosition=bottom;verticalAlign=top;align=center;html=1;shape=mxgraph.aws3.android;fillColor=#205E00;gradientColor=none;" parent="1" vertex="1">
          <mxGeometry x="190" y="385" width="50.5" height="57.71" as="geometry" />
        </mxCell>
        <mxCell id="KF91Y4wxBmUiKKHnP0IP-1" value="&lt;font style=&quot;font-size: 17px&quot;&gt;GET /post&lt;br&gt;GET /post?user=username&lt;br&gt;POST /post&lt;br&gt;DELETE /post/{post_id}&lt;/font&gt;" style="text;html=1;strokeColor=none;fillColor=none;align=center;verticalAlign=middle;whiteSpace=wrap;rounded=0;" parent="1" vertex="1">
          <mxGeometry x="360" y="430" width="240" height="103" as="geometry" />
        </mxCell>
        <mxCell id="KF91Y4wxBmUiKKHnP0IP-15" value="&lt;font style=&quot;font-size: 17px&quot;&gt;Amazon&lt;br&gt;Rekognition&lt;/font&gt;" style="outlineConnect=0;fontColor=#232F3E;gradientColor=#4AB29A;gradientDirection=north;fillColor=#116D5B;strokeColor=#ffffff;dashed=0;verticalLabelPosition=bottom;verticalAlign=top;align=center;html=1;fontSize=12;fontStyle=0;aspect=fixed;shape=mxgraph.aws4.resourceIcon;resIcon=mxgraph.aws4.rekognition;" parent="1" vertex="1">
          <mxGeometry x="730" y="30" width="78" height="78" as="geometry" />
        </mxCell>
        <mxCell id="f-8_I14ezXY6ITc8xvoN-5" style="edgeStyle=orthogonalEdgeStyle;rounded=0;orthogonalLoop=1;jettySize=auto;html=1;strokeWidth=3;" edge="1" parent="1" source="f-8_I14ezXY6ITc8xvoN-2" target="f-8_I14ezXY6ITc8xvoN-4">
          <mxGeometry relative="1" as="geometry" />
        </mxCell>
        <mxCell id="f-8_I14ezXY6ITc8xvoN-2" value="" style="sketch=0;outlineConnect=0;fontColor=#232F3E;gradientColor=none;fillColor=#8C4FFF;strokeColor=none;dashed=0;verticalLabelPosition=bottom;verticalAlign=top;align=center;html=1;fontSize=12;fontStyle=0;aspect=fixed;pointerEvents=1;shape=mxgraph.aws4.application_load_balancer;" vertex="1" parent="1">
          <mxGeometry x="430" y="342" width="78" height="78" as="geometry" />
        </mxCell>
        <mxCell id="f-8_I14ezXY6ITc8xvoN-3" value="&lt;font style=&quot;font-size: 17px;&quot;&gt;Auto Scaling group&lt;/font&gt;" style="points=[[0,0],[0.25,0],[0.5,0],[0.75,0],[1,0],[1,0.25],[1,0.5],[1,0.75],[1,1],[0.75,1],[0.5,1],[0.25,1],[0,1],[0,0.75],[0,0.5],[0,0.25]];outlineConnect=0;gradientColor=none;html=1;whiteSpace=wrap;fontSize=12;fontStyle=0;container=1;pointerEvents=0;collapsible=0;recursiveResize=0;shape=mxgraph.aws4.groupCenter;grIcon=mxgraph.aws4.group_auto_scaling_group;grStroke=1;strokeColor=#D86613;fillColor=none;verticalAlign=top;align=center;fontColor=#D86613;dashed=1;spacingTop=25;strokeWidth=3;" vertex="1" parent="1">
          <mxGeometry x="660" y="264" width="200" height="230" as="geometry" />
        </mxCell>
        <mxCell id="f-8_I14ezXY6ITc8xvoN-4" value="&lt;font style=&quot;font-size: 17px;&quot;&gt;Instance EC2&lt;/font&gt;&lt;div style=&quot;font-size: 17px;&quot;&gt;&lt;font style=&quot;font-size: 17px;&quot;&gt;+ webservice FastAPI&lt;/font&gt;&lt;/div&gt;" style="sketch=0;outlineConnect=0;fontColor=#232F3E;gradientColor=none;fillColor=#ED7100;strokeColor=none;dashed=0;verticalLabelPosition=bottom;verticalAlign=top;align=center;html=1;fontSize=12;fontStyle=0;aspect=fixed;pointerEvents=1;shape=mxgraph.aws4.instances;" vertex="1" parent="f-8_I14ezXY6ITc8xvoN-3">
          <mxGeometry x="52" y="69" width="96" height="96" as="geometry" />
        </mxCell>
        <mxCell id="f-8_I14ezXY6ITc8xvoN-6" style="edgeStyle=orthogonalEdgeStyle;rounded=0;orthogonalLoop=1;jettySize=auto;html=1;strokeWidth=3;" edge="1" parent="1" source="f-8_I14ezXY6ITc8xvoN-4" target="A4czcNd73MDWgNcc4S-J-11">
          <mxGeometry relative="1" as="geometry" />
        </mxCell>
        <mxCell id="f-8_I14ezXY6ITc8xvoN-7" value="" style="edgeStyle=none;rounded=0;orthogonalLoop=1;jettySize=auto;html=1;sourcePerimeterSpacing=5;targetPerimeterSpacing=5;strokeWidth=3;" edge="1" parent="1" source="A4czcNd73MDWgNcc4S-J-9" target="A4czcNd73MDWgNcc4S-J-11">
          <mxGeometry x="-0.6502" y="45" relative="1" as="geometry">
            <mxPoint as="offset" />
            <mxPoint x="823" y="104" as="sourcePoint" />
            <mxPoint x="925" y="94" as="targetPoint" />
          </mxGeometry>
        </mxCell>
      </root>
    </mxGraphModel>
  </diagram>
</mxfile>
